<svg viewBox="0 0 200 200" xmlns="http://www.w3.org/2000/svg" width="200" height="200">
  <!-- Background -->
  <rect width="200" height="200" fill="#E8F0E8"/>
  
  <!-- Circle border -->
  <circle cx="100" cy="100" r="95" fill="none" stroke="#2D5016" stroke-width="3"/>
  
  <!-- Temple base (bottom) -->
  <rect x="70" y="130" width="60" height="35" fill="#2D5016"/>
  
  <!-- Temple middle section -->
  <polygon points="75,130 125,130 120,100 80,100" fill="#3d7024"/>
  
  <!-- Temple top (roof) -->
  <polygon points="85,100 115,100 100,70" fill="#2D5016"/>
  
  <!-- Roof peak accent -->
  <line x1="100" y1="70" x2="100" y2="60" stroke="#8B7355" stroke-width="2"/>
  
  <!-- Windows -->
  <rect x="88" y="110" width="8" height="8" fill="#E8F0E8" stroke="#1a3a0d" stroke-width="1"/>
  <rect x="104" y="110" width="8" height="8" fill="#E8F0E8" stroke="#1a3a0d" stroke-width="1"/>
  
  <!-- Door -->
  <rect x="94" y="135" width="12" height="20" fill="#1a3a0d"/>
  <circle cx="103" cy="143" r="1.5" fill="#FFD700"/>
  
  <!-- Left decorative leaf -->
  <ellipse cx="55" cy="95" rx="10" ry="15" fill="#558B2F" transform="rotate(-40 55 95)"/>
  <line x1="55" y1="80" x2="55" y2="110" stroke="#2D5016" stroke-width="1"/>
  
  <!-- Right decorative leaf -->
  <ellipse cx="145" cy="95" rx="10" ry="15" fill="#558B2F" transform="rotate(40 145 95)"/>
  <line x1="145" y1="80" x2="145" y2="110" stroke="#2D5016" stroke-width="1"/>
</svg>